<?xml version="1.0" standalone="no"?>
<svg 
	version="1.0" 
	xmlns="http://www.w3.org/2000/svg"
	width="100pt" 
	height="100pt" 
	viewBox="0 0 100 100"
 	preserveAspectRatio="xMidYMid meet"
 >
	<defs>
		<linearGradient id="grad1" x1="0%" y1="0%" x2="100%" y2="0%">
		  <stop offset="0%" style="stop-color:rgb(255,0,0);stop-opacity:1" />
		  <stop offset="100%" style="stop-color:rgb(255,255,0);stop-opacity:1" />
		</linearGradient>
	</defs>
	<g 
		transform="translate(0, 100) scale(0.1, -.1)"
		fill="url(#grad1)"
		stroke="none"
	>
		<path 
			d="M603 788 c-28 -35 -37 -72 -42 -168 -5 -94 -8 -105 -26 -109 -13 -2 -29 8 -47 30 l-27 32 -26 -54 c-47 -101 -22 -196 63 -246 153 -90 326 59 257 223 -8 19 -34 60 -58 92 -64 83 -90 139 -84 179 6 36 5 39 -10 21z m7 -111 c0 -7 29 -52 64 -102 36 -49 63 -93 60 -96 -2 -4 0 -10 6 -14 13 -8 13 -56 1 -89 -10 -25 -81 -104 -81 -90 0 4 -5 3 -12 -4 -7 -7 -33 -12 -59 -12 -94 0 -162 81 -149 179 8 64 22 81 48 58 22 -20 51 -21 76 -2 14 11 18 27 18 72 -1 74 8 124 19 117 5 -3 9 -11 9 -17z"
		/>
	</g>
</svg>
